<svg id="a"
     class="backgroundDiagram"
     style="position: absolute; z-index: -2; opacity: .1; transform: rotate(-13deg);"
     xmlns="http://www.w3.org/2000/svg"
     viewBox="0 0 131.75 62.73">
    <rect x="107.12"
          y="1.81"
          width="24.5"
          height="12.25"
          rx="1.8"
          ry="1.8"
          style="fill:none; stroke:#000; stroke-miterlimit:10; stroke-width:.25px;" />
    <line x1="96.11"
          y1="7.87"
          x2="105.57"
          y2="7.87"
          style="fill:none; stroke:#000; stroke-miterlimit:10; stroke-width:.25px;" />
    <rect x="71.88"
          y="50.36"
          width="24.5"
          height="12.25"
          rx="1.8"
          ry="1.8"
          style="fill:none; stroke:#000; stroke-miterlimit:10; stroke-width:.25px;" />
    <line x1="83.9"
          y1="39.75"
          x2="83.92"
          y2="48.42"
          style="fill:none; stroke:#000; stroke-miterlimit:10; stroke-width:.25px;" />
    <line x1="60.54"
          y1="32.28"
          x2="69.62"
          y2="32.28"
          style="fill:none; stroke:#000; stroke-miterlimit:10; stroke-width:.25px;" />
    <line x1="96.08"
          y1="32.28"
          x2="104.74"
          y2="32.28"
          style="fill:none; stroke:#000; stroke-miterlimit:10; stroke-width:.25px;" />
    <polygon points="83.88 24.56 71.58 32.24 83.88 39.79 96.17 32.24 83.88 24.56"
             style="fill:none; stroke:#000; stroke-miterlimit:10; stroke-width:.25px;" />
    <rect x="36.12"
          y="26.3"
          width="24.5"
          height="7.25"
          rx="1.8"
          ry="1.8"
          style="fill:none; stroke:#000; stroke-miterlimit:10; stroke-width:.25px;" />
    <rect x="106.5"
          y="26.3"
          width="24.5"
          height="7.25"
          rx="1.8"
          ry="1.8"
          style="fill:none; stroke:#000; stroke-miterlimit:10; stroke-width:.25px;" />
    <rect x=".12"
          y="1.81"
          width="24.5"
          height="7.25"
          rx="1.8"
          ry="1.8"
          style="fill:none; stroke:#000; stroke-miterlimit:10; stroke-width:.25px;" />
    <rect x="71.62"
          y="1.81"
          width="24.5"
          height="7.25"
          rx="1.8"
          ry="1.8"
          style="fill:none; stroke:#000; stroke-miterlimit:10; stroke-width:.25px;" />
    <line x1="24.56"
          y1="7.87"
          x2="34.15"
          y2="7.87"
          style="fill:none; stroke:#000; stroke-miterlimit:10; stroke-width:.25px;" />
    <polygon points="33.92 8.94 35.76 7.87 33.92 6.8 33.92 8.94"
             style="fill:#231f20;" />
    <polygon points="47.08 24.31 48.15 26.16 49.22 24.31 47.08 24.31"
             style="fill:#231f20;" />
    <polygon points="82.86 48.4 83.93 50.25 85 48.4 82.86 48.4"
             style="fill:#231f20;" />
    <polygon points="69.61 8.94 71.46 7.87 69.61 6.8 69.61 8.94"
             style="fill:#231f20;" />
    <polygon points="105.19 8.94 107.04 7.87 105.19 6.8 105.19 8.94"
             style="fill:#231f20;" />
    <polygon points="104.56 33.35 106.4 32.28 104.56 31.21 104.56 33.35"
             style="fill:#231f20;" />
    <polygon points="69.54 33.35 71.39 32.28 69.54 31.21 69.54 33.35"
             style="fill:#231f20;" />
    <line x1="48.15"
          y1="15.39"
          x2="48.17"
          y2="24.43"
          style="fill:none; stroke:#000; stroke-miterlimit:10; stroke-width:.25px;" />
    <line x1="60.4"
          y1="7.87"
          x2="69.94"
          y2="7.87"
          style="fill:none; stroke:#000; stroke-miterlimit:10; stroke-width:.25px;" />
    <polygon points="48.12 .15 35.83 7.83 48.12 15.38 60.42 7.83 48.12 .15"
             style="fill:none; stroke:#000; stroke-miterlimit:10; stroke-width:.25px;" />
</svg>